# xmcd CD database file
#
# Track frame offsets:
#	150
#	13746
#	29326
#	44925
#	60738
#	75726
#	90131
#	103564
#	118046
#	133142
#	146704
#	162371
#	177076
#	192012
#	206383
#	221686
#	235549
#	251097
#	265215
#	278600
#	292379
#
# Disc length: 4099 seconds
#
# Revision: 0
# Processed by: cddbd v1.5PL3 Copyright (c) Steve Scherf et al.
# Submitted via: CDex 1.50Beta7
#
DISCID=36100115
DTITLE=Bessie Smith - After You've Gone
DYEAR=2001
DGENRE=Blues
TTITLE0=Alexander's Ragtime Band
TTITLE1=Downhearted Blues
TTITLE2=Careless Love
TTITLE3=Gimme A Pigfoot and a Bottle of Beer
TTITLE4=Backwater Blues
TTITLE5=St. Louis Blues
TTITLE6=Nobody Knows You When You're Down and Out
TTITLE7=My Sweetie Went Away
TTITLE8=Jazzbo Brown from Memphis Town
TTITLE9=Good Man is Hard To Find
TTITLE10=T'ain't Nobody's Bizness If I Do
TTITLE11=Jailhouse Blues
TTITLE12=Ticket Agent Ease Your Window Down
TTITLE13=Cake Walkin' Babies From Home
TTITLE14=I Ain't Goin' To Play Second Fiddle
TTITLE15=The Yellow Dog Blues
TTITLE16=At The Christmas Ball
TTITLE17=Muddy Water (A Mississippi Moon)
TTITLE18=After You've Gone
TTITLE19=Empty Bed Blues Pt. 1
TTITLE20=Empty Bed Blues Pt. 2
EXTD=YEAR: 2001
EXTT0=
EXTT1=
EXTT2=
EXTT3=
EXTT4=
EXTT5=
EXTT6=
EXTT7=
EXTT8=
EXTT9=
EXTT10=
EXTT11=
EXTT12=
EXTT13=
EXTT14=
EXTT15=
EXTT16=
EXTT17=
EXTT18=
EXTT19=
EXTT20=
PLAYORDER=
